<svg width="26" height="27" viewBox="0 0 26 27" fill="none" xmlns="http://www.w3.org/2000/svg">
<g clip-path="url(#clip0_13_40973)">
<path fill-rule="evenodd" clip-rule="evenodd" d="M16.6112 8.09544C15.5423 7.38122 14.2856 7 13 7V0.5C15.5711 0.5 18.0846 1.26244 20.2224 2.6909C22.3603 4.11935 24.0265 6.14968 25.0104 8.52509C25.9943 10.9005 26.2518 13.5144 25.7502 16.0362C25.2486 18.5579 24.0105 20.8743 22.1924 22.6924C20.3743 24.5105 18.0579 25.7486 15.5362 26.2502C13.0144 26.7518 10.4005 26.4943 8.02509 25.5104C5.64968 24.5265 3.61935 22.8603 2.1909 20.7224C0.762437 18.5846 0 16.0711 0 13.5H6.5C6.5 14.7856 6.88122 16.0423 7.59544 17.1112C8.30966 18.1801 9.32483 19.0132 10.5126 19.5052C11.7003 19.9972 13.0072 20.1259 14.2681 19.8751C15.529 19.6243 16.6871 19.0052 17.5962 18.0962C18.5052 17.1871 19.1243 16.029 19.3751 14.7681C19.6259 13.5072 19.4972 12.2003 19.0052 11.0126C18.5132 9.82483 17.6801 8.80966 16.6112 8.09544Z" fill="#0E121B"/>
<path fill-rule="evenodd" clip-rule="evenodd" d="M6.5 0.500003C6.5 1.3536 6.33187 2.19883 6.00522 2.98744C5.67856 3.77606 5.19978 4.49261 4.59619 5.0962C3.99261 5.69978 3.27606 6.17857 2.48744 6.50522C1.69882 6.83187 0.85359 7 2.84121e-07 7L0 13.5C1.70718 13.5 3.39765 13.1638 4.97489 12.5104C6.55213 11.8571 7.98525 10.8995 9.19236 9.69237C10.3995 8.48525 11.3571 7.05213 12.0104 5.47489C12.6638 3.89765 13 2.20718 13 0.5L6.5 0.500003Z" fill="#0E121B"/>
</g>
<defs>
<clipPath id="clip0_13_40973">
<rect width="26" height="26" fill="white" transform="translate(0 0.5)"/>
</clipPath>
</defs>
</svg>
