<svg width="24" height="25" viewBox="0 0 24 25" fill="none" xmlns="http://www.w3.org/2000/svg">
<path d="M17 12.3045C17 11.9588 17 11.786 17.052 11.632C17.2032 11.1844 17.6018 11.0108 18.0011 10.8289C18.45 10.6244 18.6744 10.5222 18.8968 10.5042C19.1493 10.4838 19.4022 10.5382 19.618 10.6593C19.9041 10.8198 20.1036 11.1249 20.3079 11.373C21.2513 12.5188 21.7229 13.0918 21.8955 13.7236C22.0348 14.2334 22.0348 14.7666 21.8955 15.2764C21.6438 16.1979 20.8485 16.9704 20.2598 17.6854C19.9587 18.0511 19.8081 18.234 19.618 18.3407C19.4022 18.4618 19.1493 18.5162 18.8968 18.4958C18.6744 18.4778 18.45 18.3756 18.0011 18.1711C17.6018 17.9892 17.2032 17.8156 17.052 17.368C17 17.214 17 17.0412 17 16.6955V12.3045Z" stroke="#525866" stroke-width="1.5"/>
<path d="M7 12.3046C7 11.8694 6.98778 11.4782 6.63591 11.1722C6.50793 11.0609 6.33825 10.9836 5.99891 10.829C5.55001 10.6246 5.32556 10.5224 5.10316 10.5044C4.43591 10.4504 4.07692 10.9058 3.69213 11.3732C2.74875 12.519 2.27706 13.0919 2.10446 13.7237C1.96518 14.2336 1.96518 14.7668 2.10446 15.2766C2.3562 16.1981 3.15152 16.9705 3.74021 17.6856C4.11129 18.1363 4.46577 18.5475 5.10316 18.496C5.32556 18.478 5.55001 18.3757 5.99891 18.1713C6.33825 18.0167 6.50793 17.9394 6.63591 17.8281C6.98778 17.5221 7 17.131 7 16.6957V12.3046Z" stroke="#525866" stroke-width="1.5"/>
<path opacity="0.4" d="M20 11V9.5C20 5.63401 16.4183 2.5 12 2.5C7.58172 2.5 4 5.63401 4 9.5V11" stroke="#525866" stroke-width="1.5" stroke-linecap="round" stroke-linejoin="round"/>
<path opacity="0.4" d="M20 18C20 22.5 16 22.5 12 22.5" stroke="#525866" stroke-width="1.5" stroke-linecap="round" stroke-linejoin="round"/>
</svg>
