<svg width="24" height="25" viewBox="0 0 24 25" fill="none" xmlns="http://www.w3.org/2000/svg">
<path d="M7.79098 19.5C7.46464 19.3681 7.28441 19.3042 7.18359 19.3166C7.05968 19.3317 6.8799 19.4637 6.52034 19.7275C5.88637 20.1928 5.0877 20.527 3.90328 20.4983C3.30437 20.4838 3.00491 20.4765 2.87085 20.249C2.73679 20.0216 2.90376 19.7067 3.23769 19.0769C3.70083 18.2034 3.99427 17.2035 3.54963 16.4023C2.78384 15.2578 2.13336 13.9025 2.0383 12.4387C1.98723 11.6522 1.98723 10.8377 2.0383 10.0512C2.29929 6.03215 5.47105 2.83076 9.45292 2.56733C10.8086 2.47765 12.2269 2.47746 13.5854 2.56733C17.5503 2.82964 20.712 6.00498 20.9965 10" stroke="#525866" stroke-width="1.5" stroke-linecap="round" stroke-linejoin="round"/>
<path opacity="0.4" d="M14.6976 22.1471C12.1878 21.9862 10.1886 20.0298 10.0241 17.5737C9.99196 17.093 9.99196 16.5953 10.0241 16.1146C10.1886 13.6585 12.1878 11.7021 14.6976 11.5411C15.5539 11.4862 16.4479 11.4863 17.3024 11.5411C19.8122 11.7021 21.8114 13.6585 21.9759 16.1146C22.008 16.5953 22.008 17.093 21.9759 17.5737C21.9159 18.4682 21.5059 19.2965 21.0233 19.9958C20.743 20.4854 20.928 21.0965 21.2199 21.6303C21.4304 22.0152 21.5356 22.2076 21.4511 22.3466C21.3666 22.4857 21.1778 22.4901 20.8003 22.499C20.0538 22.5165 19.5504 22.3123 19.1508 22.0279C18.9242 21.8667 18.8108 21.7861 18.7327 21.7768C18.6546 21.7675 18.5009 21.8286 18.1936 21.9507C17.9174 22.0605 17.5966 22.1283 17.3024 22.1471C16.4479 22.202 15.5539 22.2021 14.6976 22.1471Z" stroke="#525866" stroke-width="1.5" stroke-linejoin="round"/>
</svg>
