<svg width="24" height="25" viewBox="0 0 24 25" fill="none" xmlns="http://www.w3.org/2000/svg">
<path opacity="0.4" d="M20.2033 15.147C21.0752 14.979 21.5111 14.895 21.6606 15.0463C21.6782 15.0641 21.6891 15.0772 21.7034 15.0977C21.8254 15.272 21.6974 15.6004 21.4414 16.2573C19.9607 20.0573 16.2657 22.75 11.9417 22.75C6.313 22.75 1.75 18.187 1.75 12.5582C1.75 8.23431 4.44269 4.53928 8.24269 3.05853C8.89947 2.80261 9.22786 2.67465 9.40211 2.79656C9.42264 2.81092 9.43574 2.82185 9.45357 2.83945C9.60489 2.98888 9.52088 3.4248 9.35287 4.29663C9.20681 5.05454 9.20711 5.94239 9.20739 6.74922C9.20757 7.27036 9.20752 7.7915 9.20747 8.31264C9.20744 8.56101 9.20742 8.80938 9.20742 9.05775L9.20741 9.13425C9.2073 9.98139 9.20719 10.8242 9.3015 11.5256C9.40887 12.3243 9.67386 13.2624 10.4557 14.0442C11.2375 14.826 12.1756 15.091 12.9743 15.1984C13.6754 15.2927 14.5177 15.2926 15.3643 15.2925C15.3903 15.2925 15.4162 15.2925 15.4421 15.2925L17.6603 15.2925C17.6903 15.2925 17.7203 15.2925 17.7505 15.2925C18.5574 15.2928 19.4453 15.2931 20.2033 15.147Z" fill="#99A0AE"/>
<path d="M15.6832 2.90072L15.6186 2.87394C14.9933 2.61478 14.4114 2.3736 13.8721 2.28681C13.2435 2.18566 12.6693 2.28791 12.0723 2.65656C12.024 2.68644 11.9524 2.73426 11.9063 2.76753C11.2956 3.20804 11.0024 3.78368 10.8692 4.47508C10.7499 5.09427 10.7499 5.86328 10.75 6.74867L10.75 8.97956C10.75 9.89501 10.75 10.657 10.8312 11.2617C10.917 11.8993 11.1053 12.4731 11.5661 12.9339C12.0269 13.3946 12.6006 13.583 13.2383 13.6687C13.8429 13.75 14.6049 13.75 15.5203 13.7499L17.7513 13.7499C18.6367 13.75 19.4057 13.7501 20.0249 13.6308C20.7163 13.4975 21.2919 13.2044 21.7324 12.5937C21.7657 12.5476 21.8135 12.476 21.8434 12.4276C22.212 11.8306 22.3143 11.2565 22.2131 10.6279C22.1263 10.0885 21.8852 9.5066 21.626 8.88133L21.5992 8.8167C21.0499 7.49045 20.2447 6.2854 19.2296 5.27033C18.2145 4.25527 17.0095 3.45007 15.6832 2.90072Z" fill="#99A0AE"/>
</svg>
